<?xml version="1.0" encoding="utf-8"?>
<!-- Generator: Adobe Illustrator 16.0.0, SVG Export Plug-In . SVG Version: 6.00 Build 0)  -->
<!DOCTYPE svg PUBLIC "-//W3C//DTD SVG 1.1//EN" "http://www.w3.org/Graphics/SVG/1.1/DTD/svg11.dtd">
<svg version="1.1" id="Layer_1" xmlns="http://www.w3.org/2000/svg" xmlns:xlink="http://www.w3.org/1999/xlink" x="0px" y="0px"
	 width="98.78px" height="98.33px" viewBox="0 0 98.78 98.33" style="enable-background:new 0 0 98.78 98.33;" xml:space="preserve"
	>
<style type="text/css">
<![CDATA[
	.st0{fill:#57B847;}
	.st1{fill:#231F20;}
	.st2{fill-rule:evenodd;clip-rule:evenodd;fill:none;stroke:#231F20;stroke-width:1.3364;stroke-miterlimit:10;}
	.st3{fill:none;}
]]>
</style>
<g>
	<g>
		<path class="st3" d="M66.85,13.75l1.28-0.92c0,0,6.44,3.86,8.47,16.38l-1.56,0.56c0,0-0.92-12.61-10.1-14.78L66.85,13.75z"/>
	</g>
	<g>
		<path class="st3" d="M77.43,25.53c0,0-9.66-18.4,21.35-22.36C98.78,3.18,94.45,20.47,77.43,25.53z"/>
	</g>
	<g>
		<g>
			<path class="st0" d="M81.67,35.05c-4.87-5.99-12.51-8.23-19.86-6.85c-4.09,0.77-7.59,2.42-10.62,4.72
				c-4.04-3.38-9.04-5.44-14.92-5.44c-35.65,0-30.62,65.78,2.62,65.78c5.15,0,9.46-1.38,12.95-3.73c1.91,0.28,4.17,0.43,6.88,0.44
				c11.01,0.02,18.97-9.24,22.26-14.91C90.83,58.07,90.78,46.26,81.67,35.05z"/>
		</g>
		<g>
			<path class="st0" d="M42.49,14.42l1.28-0.92c0,0,6.44,3.87,8.47,16.38l-1.57,0.56c0,0-0.92-12.61-10.09-14.78L42.49,14.42z"/>
		</g>
		<g>
			<path class="st0" d="M53.07,26.2c0,0-9.66-18.4,21.35-22.36C74.42,3.84,70.09,21.14,53.07,26.2z"/>
		</g>
	</g>
	<g>
		<path class="st1" d="M41.73,73.1c-0.6,0.89-1.31,1.62-2.14,2.19c-1.06,0.73-2.13,1.19-3.23,1.37c-1.1,0.19-2.17,0.15-3.2-0.11
			c-1.04-0.26-2-0.71-2.9-1.36c-0.9-0.65-1.66-1.43-2.3-2.36c-0.71-1.03-1.25-2.11-1.6-3.23c-0.36-1.13-0.5-2.23-0.42-3.32
			s0.39-2.13,0.94-3.12c0.55-1,1.39-1.88,2.51-2.65c0.76-0.53,1.55-0.94,2.35-1.23c0.8-0.29,1.6-0.43,2.4-0.42
			c0.8,0.01,1.58,0.19,2.35,0.52s1.51,0.87,2.21,1.61l-1.88,1.3c-0.47-0.48-0.96-0.82-1.48-1.04c-0.52-0.21-1.05-0.32-1.59-0.32
			s-1.09,0.11-1.65,0.3c-0.55,0.2-1.1,0.48-1.62,0.85c-0.86,0.59-1.47,1.27-1.85,2.04c-0.38,0.77-0.57,1.57-0.57,2.39
			c0,0.83,0.15,1.67,0.47,2.52c0.31,0.85,0.73,1.65,1.25,2.4c0.51,0.74,1.11,1.38,1.79,1.91c0.68,0.53,1.41,0.92,2.17,1.16
			c0.77,0.24,1.56,0.31,2.38,0.2s1.62-0.43,2.41-0.98c0.74-0.51,1.31-1.08,1.71-1.71c0.4-0.63,0.66-1.29,0.76-1.97
			s0.06-1.38-0.13-2.07s-0.52-1.36-0.99-1.99l-4.51,3.12l-1.09-1.58l6.19-4.28l5.14,7.44L44.4,71.5l-1.71-1.42
			C42.65,71.2,42.33,72.21,41.73,73.1z"/>
		<path class="st1" d="M41.21,52.83l12.66,8.8l-3.73-14.96l2.57-1.78l9.76,14.13l-1.78,1.23l-8.12-11.75l-0.04,0.03l3.71,14.8
			l-1.6,1.11L42.1,55.73l-0.04,0.03l8.12,11.75l-1.78,1.23l-9.76-14.13L41.21,52.83z"/>
		<path class="st1" d="M58.43,47.26c-0.33-1.09-0.45-2.17-0.36-3.25c0.09-1.08,0.42-2.11,0.98-3.11c0.56-0.99,1.4-1.88,2.52-2.65
			c1.12-0.77,2.25-1.25,3.37-1.42c1.13-0.17,2.21-0.11,3.25,0.18c1.04,0.29,2.01,0.79,2.91,1.48c0.9,0.69,1.68,1.52,2.35,2.49
			c0.67,0.96,1.16,1.99,1.5,3.08c0.33,1.09,0.45,2.17,0.36,3.25c-0.09,1.08-0.42,2.11-0.99,3.09c-0.57,0.99-1.41,1.87-2.53,2.64
			c-1.12,0.78-2.24,1.25-3.37,1.43c-1.12,0.18-2.2,0.12-3.25-0.17c-1.04-0.29-2.01-0.79-2.91-1.48c-0.9-0.69-1.68-1.52-2.35-2.49
			C59.26,49.38,58.76,48.35,58.43,47.26z M63.54,50.96c0.66,0.56,1.38,0.99,2.16,1.27c0.78,0.28,1.59,0.38,2.45,0.28
			s1.71-0.43,2.56-1.03c0.86-0.59,1.48-1.27,1.87-2.04c0.39-0.77,0.59-1.56,0.6-2.39c0.01-0.83-0.13-1.65-0.42-2.47
			c-0.29-0.82-0.69-1.59-1.18-2.3c-0.49-0.71-1.07-1.35-1.73-1.92c-0.66-0.56-1.38-0.99-2.16-1.27s-1.59-0.38-2.45-0.28
			c-0.85,0.09-1.71,0.44-2.57,1.03c-0.86,0.59-1.48,1.27-1.87,2.04c-0.39,0.77-0.59,1.56-0.6,2.39c-0.01,0.83,0.13,1.65,0.42,2.47
			c0.29,0.82,0.69,1.59,1.18,2.3C62.29,49.75,62.87,50.39,63.54,50.96z"/>
	</g>
	<path class="st2" d="M93.28,42.17c1.32,1.9,0.67,4.64-1.45,6.1L26.14,93.69c-2.12,1.47-4.91,1.11-6.23-0.8L6.82,73.95
		c-1.32-1.9-0.67-4.64,1.45-6.11l65.69-45.42c2.12-1.47,4.91-1.11,6.22,0.79L93.28,42.17z"/>
</g>
<g>
</g>
<g>
</g>
<g>
</g>
<g>
</g>
<g>
</g>
<g>
</g>
<g>
</g>
<g>
</g>
<g>
</g>
<g>
</g>
<g>
</g>
<g>
</g>
<g>
</g>
<g>
</g>
<g>
</g>
</svg>
